<svg xmlns="http://www.w3.org/2000/svg" width="256" height="256"><path fill-opacity=".016" d="M0 128.004v128.004l128.25-.254 128.25-.254.254-127.75L257.008 0H0v128.004m.485.496c0 70.4.119 99.053.265 63.672.146-35.38.146-92.98 0-128C.604 29.153.485 58.1.485 128.5" fill="#1976D2" fill-rule="evenodd"/><path fill-opacity=".191" d="m97 56.471-64.5 56.446-.191 6.792c-.14 5.005.034 6.07.662 4.048.469-1.509 1.68-3.832 2.691-5.162 3.9-5.131 132.688-116.63 135.735-117.514 2.652-.77 2.158-.912-3.397-.978l-6.5-.077L97 56.471m84.5-54.968c2.2.778 4.997 2.566 6.216 3.972 2.784 3.213 4.55 9.59 3.665 13.238-.372 1.533-9.202 22.587-19.623 46.787-10.42 24.2-19.168 44.538-19.438 45.195-.374.908 6.803 1.269 29.844 1.5 29.383.295 30.449.375 33.926 2.538 3.16 1.965 5.327 5.327 7.263 11.267.269.825.525-1.693.568-5.595.086-7.758-.355-8.525-6.921-12.034-3.083-1.648-6.619-1.931-29.679-2.371l-26.18-.5 18.088-42c16.026-37.211 18.093-42.627 18.128-47.5.026-3.438-.642-6.812-1.779-9-3.349-6.444-4.274-7.004-11.483-6.956L177.5.088l4 1.415M32.09 136.095c-.098 7.207.414 8.063 6.91 11.534 3.083 1.648 6.619 1.931 29.679 2.371l26.18.5L77.077 192c-9.78 22.825-18.008 43.044-18.283 44.93-.687 4.705.822 10.836 3.769 15.32 2.457 3.737 2.488 3.75 9.201 3.664 4.773-.061 5.998-.31 4.204-.855-7.13-2.166-11.226-7.626-11.149-14.864.04-3.821 3.619-12.982 19.217-49.195 10.541-24.475 19.394-45.062 19.672-45.75.398-.982-5.564-1.251-27.851-1.256-16.37-.003-29.925-.441-32.066-1.035-4.531-1.259-9.448-5.985-10.689-10.274-.802-2.771-.933-2.329-1.012 3.41m191.103-4.567c-.106 1.116-1.205 3.446-2.443 5.177-1.869 2.617-129.163 114.578-132.88 116.875-.657.407-2.585 1.071-4.283 1.477-2.324.556-1.356.76 3.913.828l7 .09 63.5-55.553c34.925-30.554 64.086-56.125 64.802-56.825.885-.865 1.187-3.323.943-7.685-.198-3.526-.446-5.499-.552-4.384" fill="#1976D2" fill-rule="evenodd"/><path fill-opacity=".443" d="M104 50.592c-31.625 27.742-60.762 53.386-64.75 56.988L32 114.128l.022 5.686.022 5.686 1.821-4c1.438-3.158 15.543-16.001 66.997-61 35.847-31.35 66.623-57.788 68.392-58.75L172.469 0l-5.485.076-5.484.076-57.5 50.44m78.5-49.18c5.669 2.519 9.5 8.464 9.5 14.74 0 1.706-8.656 23.212-19.881 49.395l-19.882 46.372 30.81.291c34.971.329 34.29.174 38.703 8.81l2.25 4.404v-5.525c0-4.724-.398-5.905-2.75-8.148-1.512-1.443-4.017-3.102-5.565-3.687-1.725-.652-12.857-1.064-28.75-1.064-15.973 0-25.935-.37-25.935-.964 0-.53 8.148-19.946 18.107-43.148 17.986-41.901 18.104-42.226 17.71-48.42-.297-4.665-1.083-7.271-3.121-10.351-2.672-4.039-2.834-4.116-8.46-4.078-5.625.039-5.678.065-2.736 1.373M32.241 136.396c.242 5.504.515 6.103 4.099 9l3.841 3.104 27.767.5 27.768.5-18.021 42c-11.897 27.726-18.175 43.575-18.474 46.633-.542 5.542 1.042 10.838 4.454 14.892 2.186 2.598 3.157 2.973 7.664 2.959l5.161-.017-4-2.238c-4.433-2.48-8.5-9.191-8.5-14.028 0-1.581 8.947-23.743 19.881-49.248l19.882-46.372-30.632-.291c-30.517-.289-30.644-.299-33.998-2.691-1.851-1.321-4.218-4.246-5.259-6.5l-1.893-4.099.26 5.896m190.173-1.717c-.733 1.965-22.411 21.572-66.744 60.366-36.113 31.6-67.117 58.242-68.899 59.205l-3.24 1.75h10.484l64.242-56.139a189337.71 189337.71 0 0 0 65.05-56.857c.444-.395.669-3.085.5-5.977-.293-5.026-.355-5.13-1.393-2.348" fill="#1976D2" fill-rule="evenodd"/><path fill-opacity=".982" d="M97.216 57.063 32 114.127v9.169l2.268-3.398C36.79 116.121 159.91 7.586 166.946 2.937L171.392 0h-8.959L97.216 57.063M184 2.098c5.081 2.978 7.304 6.521 7.793 12.425.406 4.887-.616 7.594-19.182 50.859C161.825 90.515 153 111.286 153 111.54c0 .253 13.297.46 29.55.46 31.564 0 32.44.122 37.14 5.155 1.204 1.291 2.638 3.471 3.187 4.846.862 2.163 1.005 1.804 1.06-2.662.056-4.557-.292-5.46-2.968-7.712-4.871-4.098-8.882-4.615-35.826-4.621-19.887-.005-25.248-.276-24.851-1.256.278-.687 8.44-19.7 18.139-42.25 9.698-22.55 17.89-42.805 18.204-45.01.74-5.199-1.024-11.611-4.25-15.445-2.189-2.601-3.243-3.042-7.224-3.022L180.5.046l3.5 2.052M32.185 137.465c.291 4.569.651 5.19 4.649 7.994l4.333 3.041 27.501.309c20.766.234 27.384.601 27.027 1.5-.26.655-8.205 19.191-17.654 41.191-9.449 22-17.692 41.913-18.318 44.25-1.402 5.238.17 12.11 3.886 16.982 2.178 2.855 3.073 3.268 7.09 3.268h4.597l-3.374-2.274c-1.856-1.25-4.398-3.792-5.648-5.648-4.465-6.624-4.033-8.064 17.226-57.489 10.725-24.935 19.5-45.618 19.5-45.962 0-.345-13.433-.627-29.852-.627-29.395 0-29.904-.035-33.226-2.274-1.856-1.25-4.427-3.835-5.713-5.744l-2.339-3.47.315 4.953m189.308-1.176C219.29 139.815 96.218 248.33 89.054 253.063L84.608 256h8.929l65.232-57.058L224 141.884v-4.442c0-2.443-.113-4.425-.25-4.403-.137.021-1.153 1.483-2.257 3.25" fill="#1976D2" fill-rule="evenodd"/></svg>